<svg viewBox="0 0 647.62 800" xmlns="http://www.w3.org/2000/svg" id="uuid-282278d5-7237-456b-8c2a-b4d506198a95">
  <path fill="#21083f" d="M647.62,463.1c0,178.83-144.97,323.81-323.81,323.81S0,641.93,0,463.1,144.97,139.29,323.81,139.29s323.81,144.97,323.81,323.81Z"></path>
  <path fill="#56436d" d="M50.6,429.59c8.83-134.57,131.01-239.92,272.51-239.7,86.29-.58,170.04,39.01,221.41,104.77,10.16,12.96,19.04,26.78,26.48,41.24,14.78,28.95,23.81,60.45,26.02,92.24.06,3.69-5.39,4.43-6.21.63-16.39-108.79-105.39-198.28-219.86-217.16-113.57-19.88-229.65,34.24-283.84,130.93-15.46,27.05-25.58,56.88-30.29,87.67-.25,1.62-1.83,2.75-3.54,2.51-1.61-.22-2.77-1.61-2.67-3.12Z"></path>
  <path fill="#412b5b" d="M597.02,496.61c-8.83,134.57-131.01,239.92-272.51,239.7-86.29.58-170.04-39.01-221.41-104.77-10.16-12.96-19.04-26.78-26.48-41.24-14.78-28.95-23.81-60.45-26.02-92.24-.06-3.69,5.39-4.43,6.21-.63,16.39,108.79,105.39,198.28,219.86,217.16,113.57,19.88,229.65-34.24,283.84-130.92,15.46-27.05,25.58-56.88,30.29-87.67.25-1.62,1.83-2.75,3.54-2.51,1.61.22,2.77,1.61,2.67,3.12Z"></path>
  <path fill="#fff" d="M321.31,422.21l-1.33,20.65h-58.2v-3.51c.99-.07,2.31-.2,3.95-.4,1.65-.23,2.72-.46,3.21-.69,1.05-.49,1.78-1.14,2.17-1.93.43-.79.64-1.79.64-3.01v-50.4c0-1.09-.18-2.04-.54-2.87-.36-.86-1.12-1.55-2.27-2.07-.89-.43-2.09-.81-3.61-1.14-1.48-.33-2.67-.53-3.56-.59v-3.51h54.25v16.9h-3.71c-.66-2.5-2.09-5.16-4.3-7.96-2.17-2.83-4.25-4.38-6.23-4.64-1.02-.13-2.24-.23-3.66-.3-1.42-.06-3.03-.1-4.84-.1h-11.02v27.87h7.91c2.54,0,4.38-.23,5.53-.69,1.19-.49,2.22-1.3,3.11-2.42.73-.96,1.33-2.22,1.83-3.8.53-1.61.87-3.13,1.04-4.54h3.71v27.42h-3.71c-.13-1.58-.49-3.25-1.09-4.99-.56-1.78-1.15-3.06-1.78-3.85-1.02-1.28-2.19-2.12-3.51-2.52-1.28-.4-3-.59-5.14-.59h-7.91v21.05c0,2.11.15,3.77.44,4.99.3,1.22.87,2.14,1.73,2.77.86.63,2.02,1.04,3.51,1.24,1.48.16,3.59.25,6.32.25h4.3c1.78,0,3.28-.07,4.5-.2,1.25-.13,2.54-.36,3.85-.69,1.35-.36,2.31-.84,2.87-1.43,1.52-1.58,3.1-3.97,4.74-7.17,1.68-3.23,2.75-5.6,3.21-7.11h3.56Z"></path>
  <path fill="#fff" d="M399.37,376.26c-.92.03-2.27.23-4.05.59-1.78.36-3.23.91-4.35,1.63-1.12.76-1.89,2.32-2.32,4.69-.43,2.37-.64,5.27-.64,8.7v30.49c0,3.89-.81,7.26-2.42,10.13-1.61,2.87-3.74,5.22-6.37,7.06-2.6,1.78-5.35,3.05-8.25,3.8-2.87.79-5.62,1.19-8.25,1.19-4.22,0-7.97-.56-11.27-1.68-3.29-1.09-6.06-2.57-8.3-4.45-2.21-1.88-3.87-4.02-4.99-6.42-1.12-2.44-1.68-4.97-1.68-7.61v-41.45c0-1.15-.2-2.11-.59-2.87-.36-.79-1.12-1.51-2.27-2.17-.82-.46-1.88-.82-3.16-1.09-1.28-.3-2.34-.48-3.16-.54v-3.51h29.2v3.51c-.92.03-2.09.18-3.51.45-1.38.26-2.41.51-3.06.74-1.12.39-1.88,1.05-2.27,1.98-.36.92-.54,1.93-.54,3.01v38.74c0,1.88.2,3.85.59,5.93.43,2.04,1.25,3.95,2.47,5.73,1.28,1.81,3.03,3.29,5.24,4.45,2.21,1.15,5.24,1.73,9.09,1.73,3.62,0,6.65-.58,9.09-1.73,2.47-1.15,4.41-2.67,5.83-4.55,1.35-1.78,2.31-3.64,2.87-5.58.56-1.94.84-3.9.84-5.88v-28.76c0-3.66-.26-6.64-.79-8.94-.53-2.34-1.3-3.87-2.32-4.59-1.15-.82-2.73-1.47-4.74-1.93-1.98-.46-3.49-.73-4.54-.79v-3.51h28.66v3.51Z"></path>
  <path fill="#fff" d="M249.17,564.29h-38.19v-3.85c1.78-.13,3.87-.44,6.27-.94,2.4-.53,3.61-1.17,3.61-1.93,0-.26-.03-.56-.1-.89-.03-.33-.17-.77-.4-1.33l-5.98-14.53h-24.21c-.56,1.35-1.19,2.93-1.88,4.74-.66,1.81-1.24,3.43-1.73,4.84-.63,1.84-1,3.18-1.14,4-.1.82-.15,1.4-.15,1.73,0,1.05.79,1.96,2.37,2.72,1.61.73,4.28,1.25,8,1.58v3.85h-28.76v-3.85c1.09-.06,2.31-.23,3.66-.49,1.38-.3,2.47-.69,3.26-1.19,1.35-.79,2.49-1.76,3.41-2.92.96-1.15,1.75-2.52,2.37-4.1,3.82-9.26,7.64-18.53,11.46-27.82,3.85-9.29,8.1-19.53,12.75-30.73h9.88c6.46,15.88,11.51,28.43,15.17,37.65,3.66,9.22,6.77,16.87,9.34,22.93.43.99.97,1.89,1.63,2.72.66.79,1.6,1.55,2.82,2.27.92.53,1.99.92,3.21,1.19s2.32.43,3.31.49v3.85ZM212.36,535.93l-10.18-25.4-10.03,25.4h20.21Z"></path>
  <path fill="#fff" d="M288.45,564.29h-38.88v-3.85c.89-.06,2.19-.16,3.9-.3,1.75-.13,2.95-.33,3.61-.59,1.22-.49,2.04-1.14,2.47-1.93.46-.82.69-1.86.69-3.11v-49.71c0-1.12-.22-2.11-.64-2.97-.43-.86-1.27-1.55-2.52-2.07-.79-.33-1.96-.66-3.51-.99-1.55-.36-2.88-.61-4-.74v-3.85h38.88v3.85c-.99.1-2.22.25-3.71.45-1.48.16-2.73.41-3.76.74-1.28.43-2.14,1.1-2.57,2.02-.43.89-.64,1.91-.64,3.06v49.66c0,1.19.21,2.21.64,3.06.46.82,1.32,1.5,2.57,2.03.69.3,1.83.59,3.41.89,1.61.26,2.96.43,4.05.49v3.85Z"></path>
  <path fill="#fff" d="M396.8,564.29h-38.19v-3.85c1.78-.13,3.87-.44,6.27-.94,2.4-.53,3.61-1.17,3.61-1.93,0-.26-.03-.56-.1-.89-.03-.33-.17-.77-.4-1.33l-5.98-14.53h-24.21c-.56,1.35-1.19,2.93-1.88,4.74-.66,1.81-1.24,3.43-1.73,4.84-.63,1.84-1,3.18-1.14,4-.1.82-.15,1.4-.15,1.73,0,1.05.79,1.96,2.37,2.72,1.61.73,4.28,1.25,8,1.58v3.85h-28.76v-3.85c1.09-.06,2.31-.23,3.66-.49,1.38-.3,2.47-.69,3.26-1.19,1.35-.79,2.49-1.76,3.41-2.92.96-1.15,1.75-2.52,2.37-4.1,3.82-9.26,7.64-18.53,11.46-27.82,3.85-9.29,8.1-19.53,12.75-30.73h9.88c6.46,15.88,11.51,28.43,15.17,37.65,3.66,9.22,6.77,16.87,9.34,22.93.43.99.97,1.89,1.63,2.72.66.79,1.6,1.55,2.82,2.27.92.53,1.99.92,3.21,1.19s2.32.43,3.31.49v3.85ZM360,535.93l-10.18-25.4-10.03,25.4h20.21Z"></path>
  <path fill="#fff" d="M425.17,565.87c-4.58,0-8.63-.66-12.15-1.98-3.49-1.35-6.37-3.18-8.65-5.48-2.27-2.34-3.97-5.11-5.09-8.3-1.12-3.2-1.68-6.67-1.68-10.43,0-3.43.68-6.69,2.03-9.78,1.38-3.1,3.24-5.81,5.58-8.15,2.4-2.4,5.39-4.31,8.94-5.73,3.59-1.45,7.54-2.17,11.86-2.17,6.06,0,10.85,1.15,14.38,3.46,3.52,2.27,5.29,5.35,5.29,9.24,0,2.37-.63,4.28-1.88,5.73-1.25,1.45-3.41,2.17-6.47,2.17-2.47,0-4.55-.59-6.23-1.78-1.65-1.19-2.47-2.73-2.47-4.64,0-1.61.26-3.21.79-4.79.53-1.58.84-2.78.94-3.61-.36-.59-.82-1.04-1.38-1.33-.56-.33-1.43-.49-2.62-.49-1.48,0-2.83.35-4.05,1.04-1.22.69-2.35,1.91-3.41,3.66-1.02,1.65-1.84,3.85-2.47,6.62-.59,2.77-.89,6.09-.89,9.98,0,5.86,1.37,10.59,4.1,14.18,2.77,3.59,6.06,5.39,9.88,5.39s6.55-.81,8.7-2.42c2.17-1.65,4.1-3.97,5.78-6.97l3.71,2.57c-1.02,2.01-2.24,3.85-3.66,5.53-1.42,1.65-3.11,3.11-5.09,4.4-2.07,1.35-4.18,2.37-6.32,3.06-2.14.69-4.63,1.04-7.46,1.04Z"></path>
  <path fill="#fff" d="M487.47,562.02c-2.11.92-4.36,1.75-6.77,2.47-2.41.76-5.34,1.14-8.79,1.14-5.14,0-8.96-1.25-11.46-3.76-2.47-2.5-3.71-6.08-3.71-10.72v-30.34h-8.89v-5.34h9.09v-14.97h16.06v14.97h13.83v5.34h-13.74v27.08c0,3.85.53,6.59,1.58,8.2,1.09,1.61,3.01,2.42,5.78,2.42.89,0,2.12-.07,3.71-.2,1.58-.13,2.69-.28,3.31-.44v4.15Z"></path>
</svg>